<?xml version="1.0" encoding="UTF-8"?>
<!DOCTYPE svg PUBLIC "-//W3C//DTD SVG 1.1//EN" "http://www.w3.org/Graphics/SVG/1.1/DTD/svg11.dtd">
<svg xmlns="http://www.w3.org/2000/svg" version="1.1" width="512px" height="512px" style="shape-rendering:geometricPrecision; text-rendering:geometricPrecision; image-rendering:optimizeQuality; fill-rule:evenodd; clip-rule:evenodd" xmlns:xlink="http://www.w3.org/1999/xlink">
<g><path style="opacity:0.905" fill="#000000" d="M 511.5,249.5 C 511.5,258.833 511.5,268.167 511.5,277.5C 508.012,298.3 498.346,315.8 482.5,330C 471.213,337.897 460.38,346.397 450,355.5C 449.163,357.351 448.329,359.184 447.5,361C 452.687,383.622 456.52,406.455 459,429.5C 455.107,432.187 451.274,432.02 447.5,429C 428.834,410.993 409.001,394.493 388,379.5C 329.93,392.22 274.43,385.054 221.5,358C 206.477,349.312 193.144,338.479 181.5,325.5C 161.348,324.784 141.348,322.951 121.5,320C 100.392,335.237 80.3916,351.904 61.5,370C 55.3358,372.588 52.0025,370.588 51.5,364C 54.8706,344.813 58.3706,325.647 62,306.5C 64.1737,299.036 62.007,293.203 55.5,289C 41.4724,280.055 28.6391,269.555 17,257.5C 7.75857,245.593 1.92524,232.259 -0.5,217.5C -0.5,207.833 -0.5,198.167 -0.5,188.5C 5.67025,160.353 20.3369,137.52 43.5,120C 83.2747,92.1309 127.608,78.6309 176.5,79.5C 223.508,78.562 266.508,91.062 305.5,117C 314.1,123.596 322.1,130.93 329.5,139C 371.632,138.783 411.299,148.45 448.5,168C 473.83,181.663 492.663,201.496 505,227.5C 507.719,234.81 509.886,242.143 511.5,249.5 Z M 158.5,91.5 C 201.416,88.7165 242.083,96.8832 280.5,116C 292.386,122.777 303.386,130.777 313.5,140C 280.59,143.082 249.59,152.415 220.5,168C 195.893,181.274 177.393,200.441 165,225.5C 153.156,255.417 155.323,284.25 171.5,312C 155.092,312.418 138.926,310.585 123,306.5C 121.189,307.078 119.355,307.578 117.5,308C 99.5115,319.981 82.6781,333.481 67,348.5C 69.7116,332.569 72.545,316.569 75.5,300.5C 74.9379,293.116 71.9379,286.95 66.5,282C 54.0952,273.598 42.2618,264.431 31,254.5C 11.3861,231.091 6.38607,204.758 16,175.5C 24.0229,156.142 36.5229,140.309 53.5,128C 85.2238,106.37 120.224,94.2033 158.5,91.5 Z M 332.5,151.5 C 375.001,151.285 414.334,162.118 450.5,184C 474.294,198.793 490.128,219.626 498,246.5C 503.998,276.716 495.498,301.883 472.5,322C 461.714,329.785 451.214,337.951 441,346.5C 437.633,350.736 435.8,355.57 435.5,361C 438.688,377.056 441.354,392.89 443.5,408.5C 431.314,397.813 418.98,387.313 406.5,377C 401.997,373.245 396.997,370.245 391.5,368C 377.252,369.983 362.919,371.65 348.5,373C 305.683,375.704 265.35,367.037 227.5,347C 206,334.833 189.167,318 177,296.5C 163.296,263.357 168.296,233.357 192,206.5C 219.276,179.266 252.11,162.433 290.5,156C 304.564,153.64 318.564,152.14 332.5,151.5 Z"/></g>
<g><path style="opacity:0.924" fill="#000000" d="M 275.5,207.5 C 316.501,207.333 357.501,207.5 398.5,208C 401.442,208.94 402.775,210.94 402.5,214C 402.646,216.034 401.98,217.701 400.5,219C 358.5,219.667 316.5,219.667 274.5,219C 270.597,214.851 270.93,211.018 275.5,207.5 Z"/></g>
<g><path style="opacity:0.92" fill="#000000" d="M 275.5,256.5 C 316.501,256.333 357.501,256.5 398.5,257C 402.501,259.107 403.501,262.273 401.5,266.5C 400.975,267.192 400.308,267.692 399.5,268C 357.833,268.667 316.167,268.667 274.5,268C 270.639,263.767 270.972,259.933 275.5,256.5 Z"/></g>
<g><path style="opacity:0.924" fill="#000000" d="M 275.5,305.5 C 316.835,305.333 358.168,305.5 399.5,306C 403.487,309.713 403.487,313.38 399.5,317C 357.833,317.667 316.167,317.667 274.5,317C 270.376,312.695 270.709,308.862 275.5,305.5 Z"/></g>
</svg>
