<?xml version="1.0" encoding="UTF-8"?>
<!DOCTYPE svg PUBLIC "-//W3C//DTD SVG 1.1//EN" "http://www.w3.org/Graphics/SVG/1.1/DTD/svg11.dtd">
<svg xmlns="http://www.w3.org/2000/svg" version="1.1" width="512px" height="512px" style="shape-rendering:geometricPrecision; text-rendering:geometricPrecision; image-rendering:optimizeQuality; fill-rule:evenodd; clip-rule:evenodd" xmlns:xlink="http://www.w3.org/1999/xlink">
<g><path style="opacity:0.87" fill="#000000" d="M 235.5,59.5 C 308.414,54.8866 367.581,80.8866 413,137.5C 450.501,190.495 460.834,248.495 444,311.5C 422.5,378.333 378.333,422.5 311.5,444C 230.227,464.234 161.394,443.734 105,382.5C 61.8107,328.046 49.144,267.046 67,199.5C 88.5,132.667 132.667,88.5 199.5,67C 211.482,63.7308 223.482,61.2308 235.5,59.5 Z M 252.5,67.5 C 332.096,70.3322 389.93,106.999 426,177.5C 455.686,250.362 446.02,317.362 397,378.5C 346.582,432.416 285.082,452.25 212.5,438C 149.001,421.169 104.834,382.335 80,321.5C 56.9153,252.666 67.9153,189.999 113,133.5C 150.251,91.9577 196.751,69.9577 252.5,67.5 Z M 239.5,101.5 C 314.515,98.5648 367.682,130.898 399,198.5C 421.825,266.703 406.991,325.203 354.5,374C 300.45,415.041 242.784,420.707 181.5,391C 124.646,356.805 98.146,306.305 102,239.5C 112.072,172.435 149.239,128.269 213.5,107C 222.237,104.821 230.903,102.988 239.5,101.5 Z"/></g>
<g><path style="opacity:0.871" fill="#000000" d="M 238.5,92.5 C 295.663,88.7067 343.163,108.04 381,150.5C 423.483,206.38 430.15,266.38 401,330.5C 372.987,381.114 330.154,410.28 272.5,418C 208.576,422.113 157.743,398.613 120,347.5C 92.9904,305.44 85.657,260.107 98,211.5C 120.558,143.104 167.392,103.437 238.5,92.5 Z M 239.5,101.5 C 230.903,102.988 222.237,104.821 213.5,107C 149.239,128.269 112.072,172.435 102,239.5C 98.146,306.305 124.646,356.805 181.5,391C 242.784,420.707 300.45,415.041 354.5,374C 406.991,325.203 421.825,266.703 399,198.5C 367.682,130.898 314.515,98.5648 239.5,101.5 Z"/></g>
<g><path style="opacity:0.873" fill="#000000" d="M 253.5,164.5 C 255.262,164.357 256.929,164.691 258.5,165.5C 259.495,170.792 259.828,176.125 259.5,181.5C 281.576,184.766 293.576,197.599 295.5,220C 294.407,224.206 291.74,225.539 287.5,224C 286.046,203.553 275.213,192.053 255,189.5C 233.576,192.589 223.576,204.922 225,226.5C 228.067,238.568 235.567,246.401 247.5,250C 262.02,249.243 274.52,253.743 285,263.5C 299,281.5 299,299.5 285,317.5C 278.099,324.858 269.599,328.858 259.5,329.5C 259.828,334.875 259.495,340.208 258.5,345.5C 256.5,346.833 254.5,346.833 252.5,345.5C 251.505,340.208 251.172,334.875 251.5,329.5C 229.424,326.234 217.424,313.401 215.5,291C 216.593,286.794 219.26,285.461 223.5,287C 224.97,307.148 235.637,318.648 255.5,321.5C 279.538,317.304 289.038,303.304 284,279.5C 276.149,264.486 263.649,257.652 246.5,259C 221.526,250.562 212.026,233.395 218,207.5C 224.059,192.276 235.226,183.61 251.5,181.5C 250.955,175.537 251.621,169.87 253.5,164.5 Z"/></g>
</svg>
