<?xml version="1.0" encoding="UTF-8"?>
<!DOCTYPE svg PUBLIC "-//W3C//DTD SVG 1.1//EN" "http://www.w3.org/Graphics/SVG/1.1/DTD/svg11.dtd">
<svg xmlns="http://www.w3.org/2000/svg" version="1.1" width="512px" height="512px" style="shape-rendering:geometricPrecision; text-rendering:geometricPrecision; image-rendering:optimizeQuality; fill-rule:evenodd; clip-rule:evenodd" xmlns:xlink="http://www.w3.org/1999/xlink">
<g><path style="opacity:0.962" fill="#000000" d="M 138.5,127.5 C 143.742,127.023 148.742,127.856 153.5,130C 187.347,164.014 221.347,197.847 255.5,231.5C 289.653,197.847 323.653,164.014 357.5,130C 365.612,126.06 373.112,126.894 380,132.5C 384.193,139.297 384.526,146.297 381,153.5C 346.986,187.347 313.153,221.347 279.5,255.5C 313.153,289.653 346.986,323.653 381,357.5C 384.94,365.612 384.106,373.112 378.5,380C 371.732,384.241 364.732,384.575 357.5,381C 323.653,346.986 289.653,313.153 255.5,279.5C 221.347,313.153 187.347,346.986 153.5,381C 138.888,387.694 129.888,383.194 126.5,367.5C 126.969,363.926 128.136,360.592 130,357.5C 164.014,323.653 197.847,289.653 231.5,255.5C 197.847,221.347 164.014,187.347 130,153.5C 124.607,141.846 127.44,133.179 138.5,127.5 Z"/></g>
</svg>
