<?xml version="1.0" standalone="no"?>
<!DOCTYPE svg PUBLIC "-//W3C//DTD SVG 20010904//EN"
 "http://www.w3.org/TR/2001/REC-SVG-20010904/DTD/svg10.dtd">
<svg version="1.0" xmlns="http://www.w3.org/2000/svg"
 width="512.000000pt" height="512.000000pt" viewBox="0 0 512.000000 512.000000"
 preserveAspectRatio="xMidYMid meet">

<g transform="translate(0.000000,512.000000) scale(0.100000,-0.100000)"
fill="#000000" stroke="none">
<path d="M2047 4559 c-83 -9 -194 -66 -251 -130 -121 -135 -148 -319 -69 -477
15 -31 30 -60 31 -64 2 -5 -230 -8 -515 -8 -579 0 -578 0 -647 -67 -77 -76
-81 -89 -84 -358 -2 -131 -1 -259 3 -283 9 -59 63 -119 121 -134 l44 -12 2
-1176 3 -1176 27 -41 c14 -22 43 -48 65 -59 37 -18 87 -19 1783 -19 1696 0
1746 1 1783 19 22 11 51 37 65 59 l27 41 3 1177 2 1177 36 6 c50 10 109 66
123 119 9 30 12 119 9 293 -3 235 -4 251 -25 291 -13 23 -39 58 -59 77 -67 65
-72 66 -616 66 -268 0 -488 2 -488 5 0 2 13 30 29 62 62 121 63 256 5 379 -95
200 -355 294 -559 200 -123 -56 -207 -175 -272 -383 -15 -51 -30 -93 -33 -93
-3 0 -18 40 -33 90 -41 128 -99 242 -153 300 -85 90 -217 134 -357 119z m163
-190 c60 -27 87 -54 119 -119 40 -80 121 -322 121 -361 0 -5 -85 -9 -190 -9
-177 0 -193 2 -242 23 -101 45 -153 111 -165 206 -7 62 17 145 57 193 68 82
201 112 300 67z m996 -14 c33 -21 60 -48 81 -84 82 -136 37 -286 -107 -358
l-65 -33 -192 0 c-157 0 -193 3 -193 14 0 7 14 60 31 117 91 308 155 383 320
377 64 -3 83 -8 125 -33z m-1088 -692 c-137 -103 -279 -267 -349 -405 l-29
-58 -530 0 -530 0 0 224 0 224 26 31 26 31 725 0 725 0 -64 -47z m588 -18
c183 -89 335 -217 439 -373 l45 -67 -315 -3 c-173 -1 -457 -1 -630 0 l-315 3
39 60 c84 129 231 265 368 341 103 58 216 104 238 98 11 -3 70 -30 131 -59z
m1708 34 l26 -31 0 -224 0 -224 -530 0 -530 0 -29 58 c-70 138 -212 302 -349
405 l-64 47 725 0 725 0 26 -31z m-2744 -655 c0 -3 -9 -49 -19 -102 -11 -54
-23 -133 -27 -178 -6 -75 -5 -82 17 -107 35 -40 78 -45 116 -13 28 23 31 32
37 108 8 84 27 191 48 261 l11 37 707 0 707 0 11 -37 c21 -70 40 -177 48 -261
6 -76 9 -85 37 -108 38 -32 81 -27 116 13 22 25 23 32 17 107 -4 45 -16 124
-27 178 -10 53 -19 99 -19 102 0 3 185 6 410 6 l410 0 0 -1150 0 -1150 -1710
0 -1710 0 0 1150 0 1150 410 0 c226 0 410 -3 410 -6z"/>
</g>
</svg>
