<?xml version="1.0" encoding="UTF-8"?>
<!DOCTYPE svg PUBLIC "-//W3C//DTD SVG 1.1//EN" "http://www.w3.org/Graphics/SVG/1.1/DTD/svg11.dtd">
<svg xmlns="http://www.w3.org/2000/svg" version="1.1" width="512px" height="512px" style="shape-rendering:geometricPrecision; text-rendering:geometricPrecision; image-rendering:optimizeQuality; fill-rule:evenodd; clip-rule:evenodd" xmlns:xlink="http://www.w3.org/1999/xlink">
<g><path style="opacity:0.977" fill="#000000" d="M 396.5,0.5 C 400.702,0.383939 404.702,1.21727 408.5,3C 433,27.5 457.5,52 482,76.5C 486.746,87.3649 483.913,95.5316 473.5,101C 467.332,102.354 461.666,101.354 456.5,98C 443,84.5 429.5,71 416,57.5C 415.667,102.833 415.333,148.167 415,193.5C 409.603,204.078 401.436,206.911 390.5,202C 387.538,199.713 385.371,196.88 384,193.5C 383.667,148.167 383.333,102.833 383,57.5C 368.439,72.7293 353.273,87.2293 337.5,101C 324.344,103.767 316.677,98.5998 314.5,85.5C 314.868,82.362 315.701,79.362 317,76.5C 341.5,52 366,27.5 390.5,3C 392.611,2.15532 394.611,1.32198 396.5,0.5 Z"/></g>
<g><path style="opacity:0.976" fill="#000000" d="M 91.5,47.5 C 150.168,47.3333 208.834,47.5 267.5,48C 276.482,52.4731 279.649,59.6397 277,69.5C 275.167,74 272,77.1667 267.5,79C 209.815,79.0453 152.148,79.712 94.5,81C 62.7783,88.055 43.9449,107.555 38,139.5C 37.3333,216.833 37.3333,294.167 38,371.5C 43.941,403.441 62.7743,422.941 94.5,430C 98.706,430.261 102.873,430.761 107,431.5C 127.253,397.326 149.253,364.326 173,332.5C 194.661,304.17 220.161,280.003 249.5,260C 296.163,231.407 342.83,231.407 389.5,260C 404.491,269.65 418.324,280.816 431,293.5C 431.333,278.833 431.667,264.167 432,249.5C 434.807,242.513 439.973,239.18 447.5,239.5C 455.027,239.18 460.193,242.513 463,249.5C 463.667,291.833 463.667,334.167 463,376.5C 453.496,424.671 424.663,453.504 376.5,463C 281.5,463.667 186.5,463.667 91.5,463C 42.0054,453.172 13.1721,423.338 5,373.5C 4.01989,292.474 4.35322,211.474 6,130.5C 16.6855,84.3124 45.1855,56.6458 91.5,47.5 Z M 315.5,271.5 C 335.746,271.727 354.413,277.227 371.5,288C 394.135,302.962 413.968,321.129 431,342.5C 434.957,370.964 426.791,395.131 406.5,415C 393.615,425.074 378.949,430.408 362.5,431C 290.5,431.667 218.5,431.667 146.5,431C 168.18,394.806 192.68,360.639 220,328.5C 235.872,310.675 254.038,295.842 274.5,284C 287.491,277.176 301.157,273.009 315.5,271.5 Z"/></g>
<g><path style="opacity:0.964" fill="#000000" d="M 140.5,132.5 C 170.242,130.459 191.408,142.792 204,169.5C 213.564,200.481 205.064,224.981 178.5,243C 150.066,256.345 124.9,251.845 103,229.5C 85,204.167 85,178.833 103,153.5C 113.175,142.167 125.675,135.167 140.5,132.5 Z M 143.5,165.5 C 165.977,165.143 176.144,176.143 174,198.5C 168.649,212.432 158.482,218.599 143.5,217C 128.888,212.619 122.055,202.786 123,187.5C 125.61,176.062 132.443,168.729 143.5,165.5 Z"/></g>
</svg>
