<?xml version="1.0" standalone="no"?>
<!DOCTYPE svg PUBLIC "-//W3C//DTD SVG 20010904//EN"
 "http://www.w3.org/TR/2001/REC-SVG-20010904/DTD/svg10.dtd">
<svg version="1.0" xmlns="http://www.w3.org/2000/svg"
 width="512.000000pt" height="512.000000pt" viewBox="0 0 512.000000 512.000000"
 preserveAspectRatio="xMidYMid meet">

<g transform="translate(0.000000,512.000000) scale(0.100000,-0.100000)"
fill="#000000" stroke="none">
<path d="M3076 4355 c-62 -24 -95 -54 -283 -262 -98 -108 -218 -232 -268 -276
-232 -203 -546 -370 -835 -442 -208 -53 -256 -57 -655 -65 -320 -6 -389 -10
-435 -24 -179 -57 -308 -187 -366 -366 -14 -45 -18 -103 -21 -325 -5 -302 3
-367 57 -482 36 -77 133 -183 207 -225 l52 -29 3 -432 3 -432 26 -56 c33 -69
89 -127 155 -160 41 -20 64 -24 139 -24 78 0 97 4 140 27 60 31 114 87 146
148 24 45 24 46 27 463 l3 417 72 0 c251 0 569 -80 832 -209 296 -146 437
-261 778 -639 172 -189 200 -207 332 -207 78 0 97 4 147 28 33 16 77 50 106
81 89 99 83 -48 80 1716 l-3 1555 -24 47 c-31 65 -95 126 -161 157 -68 32
-192 39 -254 16z m172 -215 c66 -40 62 61 62 -1579 0 -1031 -3 -1498 -11
-1518 -15 -40 -47 -71 -80 -78 -65 -15 -81 -3 -275 212 -200 220 -304 316
-454 423 -230 163 -472 278 -742 350 -120 32 -351 70 -425 70 l-43 0 0 540 0
540 48 0 c26 0 92 7 147 15 474 67 915 278 1253 600 41 38 148 151 238 252 91
100 173 184 182 186 38 10 69 6 100 -13z m-2178 -1581 l0 -530 -207 3 c-203 3
-209 4 -258 30 -60 32 -114 87 -146 148 -24 44 -24 49 -24 350 0 301 0 306 24
350 42 81 118 145 201 171 14 4 112 8 218 8 l192 1 0 -531z m-110 -1138 l0
-389 -25 -30 c-31 -36 -73 -48 -119 -32 -67 22 -66 16 -66 450 l0 390 105 0
105 0 0 -389z"/>
<path d="M4304 3811 c-21 -16 -110 -100 -196 -188 l-158 -161 0 -47 c0 -64 39
-105 101 -105 43 0 46 2 236 193 207 207 211 213 178 277 -17 33 -61 60 -98
60 -13 0 -42 -13 -63 -29z"/>
<path d="M4113 2654 c-29 -15 -63 -65 -63 -94 0 -30 34 -80 65 -94 49 -24 681
-24 730 0 31 14 65 64 65 94 0 30 -34 80 -65 94 -49 24 -684 23 -732 0z"/>
<path d="M3979 1781 c-24 -24 -29 -38 -29 -76 l0 -47 158 -161 c171 -174 222
-217 259 -217 37 0 81 27 98 60 33 64 29 70 -178 277 -190 191 -193 193 -236
193 -34 0 -49 -6 -72 -29z"/>
</g>
</svg>
