<?xml version="1.0" standalone="no"?>
<!DOCTYPE svg PUBLIC "-//W3C//DTD SVG 20010904//EN"
 "http://www.w3.org/TR/2001/REC-SVG-20010904/DTD/svg10.dtd">
<svg version="1.0" xmlns="http://www.w3.org/2000/svg"
 width="512.000000pt" height="512.000000pt" viewBox="0 0 512.000000 512.000000"
 preserveAspectRatio="xMidYMid meet">

<g transform="translate(0.000000,512.000000) scale(0.100000,-0.100000)"
fill="#000000" stroke="none">
<path d="M2326 4565 c-672 -109 -1190 -632 -1291 -1300 -12 -80 -15 -214 -15
-677 l0 -576 -67 -53 c-255 -200 -413 -511 -413 -811 0 -64 3 -72 29 -99 l29
-29 694 0 694 0 13 -51 c63 -246 301 -429 558 -429 99 0 164 15 260 61 142 68
255 202 300 356 l18 63 693 0 694 0 29 29 c26 27 29 35 29 99 0 293 -148 592
-396 798 l-79 65 -6 622 c-5 592 -6 627 -27 719 -138 612 -596 1068 -1204
1199 -125 27 -415 35 -542 14z m490 -214 c531 -104 938 -510 1056 -1051 20
-89 21 -133 25 -739 3 -367 8 -652 14 -662 5 -10 40 -38 77 -63 198 -131 339
-346 377 -573 l7 -43 -1812 0 -1812 0 7 43 c38 227 179 442 377 573 37 25 72
53 77 63 6 10 11 295 14 662 4 606 5 650 25 739 65 300 206 542 431 744 205
183 463 293 771 330 70 8 270 -4 366 -23z m104 -3341 c0 -26 -55 -116 -96
-157 -25 -24 -75 -59 -112 -76 -59 -27 -78 -31 -152 -31 -74 0 -93 4 -152 31
-37 17 -87 52 -112 76 -41 41 -96 131 -96 157 0 7 119 10 360 10 241 0 360 -3
360 -10z"/>
</g>
</svg>
