<?xml version="1.0" standalone="no"?>
<!DOCTYPE svg PUBLIC "-//W3C//DTD SVG 20010904//EN"
 "http://www.w3.org/TR/2001/REC-SVG-20010904/DTD/svg10.dtd">
<svg version="1.0" xmlns="http://www.w3.org/2000/svg"
 width="512.000000pt" height="512.000000pt" viewBox="0 0 512.000000 512.000000"
 preserveAspectRatio="xMidYMid meet">

<g transform="translate(0.000000,512.000000) scale(0.100000,-0.100000)"
fill="#000000" stroke="none">
<path d="M2495 5106 c-37 -17 -70 -52 -84 -89 -8 -19 -11 -383 -11 -1163 l0
-1134 -1149 -2 c-1143 -3 -1150 -3 -1177 -24 -52 -39 -69 -71 -69 -133 0 -48
5 -64 29 -95 53 -70 -24 -66 1231 -66 l1135 0 2 -1148 3 -1149 29 -37 c68 -90
190 -86 260 8 21 27 21 34 24 1177 l2 1149 1149 2 c1143 3 1150 3 1177 24 44
32 66 68 71 116 7 58 -15 108 -63 144 l-37 29 -1149 3 -1148 2 0 1135 c0 948
-2 1141 -14 1169 -31 74 -138 116 -211 82z"/>
</g>
</svg>
