<?xml version="1.0" encoding="UTF-8"?>
<!DOCTYPE svg PUBLIC "-//W3C//DTD SVG 1.1//EN" "http://www.w3.org/Graphics/SVG/1.1/DTD/svg11.dtd">
<svg xmlns="http://www.w3.org/2000/svg" version="1.1" width="512px" height="512px" style="shape-rendering:geometricPrecision; text-rendering:geometricPrecision; image-rendering:optimizeQuality; fill-rule:evenodd; clip-rule:evenodd" xmlns:xlink="http://www.w3.org/1999/xlink">
<g><path style="opacity:0.887" fill="#000000" d="M 104.5,27.5 C 205.167,27.3333 305.834,27.5 406.5,28C 439.515,33.3548 463.015,51.1882 477,81.5C 480.023,88.9026 482.023,96.5693 483,104.5C 483.667,205.167 483.667,305.833 483,406.5C 475.711,449.122 450.878,474.622 408.5,483C 306.5,483.667 204.5,483.667 102.5,483C 60.0944,474.595 35.2611,449.095 28,406.5C 27.3333,305.833 27.3333,205.167 28,104.5C 36.3464,61.6539 61.8464,35.9873 104.5,27.5 Z M 114.5,35.5 C 211.497,36.2567 308.497,36.7567 405.5,37C 443.667,44.5 466.5,67.3333 474,105.5C 474.667,205.5 474.667,305.5 474,405.5C 466.5,443.667 443.667,466.5 405.5,474C 305.5,474.667 205.5,474.667 105.5,474C 67.3062,466.473 44.4729,443.64 37,405.5C 36.3333,305.5 36.3333,205.5 37,105.5C 43.5275,70.3044 64.0275,47.8044 98.5,38C 103.972,37.1329 109.306,36.2996 114.5,35.5 Z M 297.5,149.5 C 318.833,149.5 340.167,149.5 361.5,149.5C 361.667,170.503 361.5,191.503 361,212.5C 356.833,220.858 350.667,222.692 342.5,218C 340.683,216.2 339.516,214.034 339,211.5C 338.667,206.5 338.333,201.5 338,196.5C 336.401,194.964 334.567,194.464 332.5,195C 313.862,212.638 295.528,230.638 277.5,249C 265.694,252.193 260.194,247.693 261,235.5C 261.667,234.167 262.333,232.833 263,231.5C 280.333,214.167 297.667,196.833 315,179.5C 315.758,177.231 315.591,175.064 314.5,173C 309.5,172.667 304.5,172.333 299.5,172C 292.134,169.442 289.301,164.275 291,156.5C 292.694,153.642 294.861,151.309 297.5,149.5 Z"/></g>
<g><path style="opacity:0.878" fill="#000000" d="M 295.5,140.5 C 320.408,140.172 345.241,140.506 370,141.5C 370.667,166.167 370.667,190.833 370,215.5C 365.13,227.519 356.296,232.019 343.5,229C 335.487,225.811 330.654,219.978 329,211.5C 314.167,226.333 299.333,241.167 284.5,256C 275.262,260.934 266.262,260.601 257.5,255C 249.499,245.4 248.999,235.567 256,225.5C 270.5,211 285,196.5 299.5,182C 283.936,177.376 278.436,167.209 283,151.5C 286.148,146.509 290.314,142.843 295.5,140.5 Z M 297.5,149.5 C 294.861,151.309 292.694,153.642 291,156.5C 289.301,164.275 292.134,169.442 299.5,172C 304.5,172.333 309.5,172.667 314.5,173C 315.591,175.064 315.758,177.231 315,179.5C 297.667,196.833 280.333,214.167 263,231.5C 262.333,232.833 261.667,234.167 261,235.5C 260.194,247.693 265.694,252.193 277.5,249C 295.528,230.638 313.862,212.638 332.5,195C 334.567,194.464 336.401,194.964 338,196.5C 338.333,201.5 338.667,206.5 339,211.5C 339.516,214.034 340.683,216.2 342.5,218C 350.667,222.692 356.833,220.858 361,212.5C 361.5,191.503 361.667,170.503 361.5,149.5C 340.167,149.5 318.833,149.5 297.5,149.5 Z"/></g>
</svg>
