<?xml version="1.0" encoding="UTF-8"?>
<!DOCTYPE svg PUBLIC "-//W3C//DTD SVG 1.1//EN" "http://www.w3.org/Graphics/SVG/1.1/DTD/svg11.dtd">
<svg xmlns="http://www.w3.org/2000/svg" version="1.1" width="512px" height="512px" style="shape-rendering:geometricPrecision; text-rendering:geometricPrecision; image-rendering:optimizeQuality; fill-rule:evenodd; clip-rule:evenodd" xmlns:xlink="http://www.w3.org/1999/xlink">
<g><path style="opacity:0.972" fill="#000000" d="M 100.5,-0.5 C 203.833,-0.5 307.167,-0.5 410.5,-0.5C 430.357,5.15685 442.524,18.1569 447,38.5C 447.667,186.5 447.667,334.5 447,482.5C 442.686,497.314 433.186,506.981 418.5,511.5C 412.5,511.5 406.5,511.5 400.5,511.5C 395.324,509.579 390.324,507.079 385.5,504C 347.167,465.667 308.833,427.333 270.5,389C 261.083,382.116 251.416,381.783 241.5,388C 202.833,426.667 164.167,465.333 125.5,504C 120.676,507.079 115.676,509.579 110.5,511.5C 104.5,511.5 98.5,511.5 92.5,511.5C 77.8145,506.981 68.3145,497.314 64,482.5C 63.3333,334.5 63.3333,186.5 64,38.5C 68.4727,18.1701 80.6394,5.1701 100.5,-0.5 Z M 110.5,29.5 C 207.167,29.3333 303.834,29.5 400.5,30C 408.356,30.8578 413.522,35.0245 416,42.5C 416.667,187.5 416.667,332.5 416,477.5C 412.627,480.886 408.794,481.386 404.5,479C 366.167,440.667 327.833,402.333 289.5,364C 266.833,348.667 244.167,348.667 221.5,364C 183.167,402.333 144.833,440.667 106.5,479C 102.206,481.386 98.3731,480.886 95,477.5C 94.3333,332.167 94.3333,186.833 95,41.5C 98.0596,34.5888 103.226,30.5888 110.5,29.5 Z"/></g>
</svg>
