<?xml version="1.0" encoding="UTF-8"?>
<!DOCTYPE svg PUBLIC "-//W3C//DTD SVG 1.1//EN" "http://www.w3.org/Graphics/SVG/1.1/DTD/svg11.dtd">
<svg xmlns="http://www.w3.org/2000/svg" version="1.1" width="512px" height="512px" style="shape-rendering:geometricPrecision; text-rendering:geometricPrecision; image-rendering:optimizeQuality; fill-rule:evenodd; clip-rule:evenodd" xmlns:xlink="http://www.w3.org/1999/xlink">
<g><path style="opacity:1" fill="#ee4444" d="M 100.5,-0.5 C 202.167,-0.5 303.833,-0.5 405.5,-0.5C 407.137,0.379591 408.97,1.04626 411,1.5C 411.765,1.43007 412.265,1.09674 412.5,0.5C 414.153,0.659599 415.486,1.32627 416.5,2.5C 418.426,4.29268 420.759,5.29268 423.5,5.5C 423.833,5.5 424.167,5.5 424.5,5.5C 425.638,8.08623 427.638,9.7529 430.5,10.5C 433.491,12.1233 435.824,14.4567 437.5,17.5C 437.427,19.0269 438.094,20.0269 439.5,20.5C 442.535,23.9024 444.535,27.9024 445.5,32.5C 444.957,32.56 444.624,32.8933 444.5,33.5C 444.994,35.0255 445.661,36.3588 446.5,37.5C 447.832,186.47 447.832,335.47 446.5,484.5C 444.896,485.287 444.229,486.62 444.5,488.5C 443.31,490.355 441.977,492.188 440.5,494C 440.728,494.399 441.062,494.565 441.5,494.5C 439.906,497.764 437.573,500.431 434.5,502.5C 433.242,501.984 432.242,502.65 431.5,504.5C 428.753,507.207 425.42,508.873 421.5,509.5C 418.572,509.565 415.905,510.232 413.5,511.5C 412.167,511.5 410.833,511.5 409.5,511.5C 404.434,510.892 399.434,509.558 394.5,507.5C 393.893,507.624 393.56,507.957 393.5,508.5C 390.699,507.265 388.032,505.765 385.5,504C 367.965,486.632 350.632,469.132 333.5,451.5C 322.843,439.167 311.176,427.167 298.5,415.5C 289.5,405.487 280.166,396.487 270.5,388.5C 269.508,388.672 268.842,388.338 268.5,387.5C 269.738,387.19 269.738,386.69 268.5,386C 266.833,385.167 265.167,384.333 263.5,383.5C 262.893,383.624 262.56,383.957 262.5,384.5C 262.167,384.5 261.833,384.5 261.5,384.5C 261.389,383.883 261.056,383.383 260.5,383C 255.864,382.061 251.531,382.561 247.5,384.5C 245.62,384.229 244.287,384.896 243.5,386.5C 243.158,387.338 242.492,387.672 241.5,387.5C 240.761,387.369 240.094,387.536 239.5,388C 238.262,388.69 238.262,389.19 239.5,389.5C 237.167,392.5 234.5,395.167 231.5,397.5C 224.834,402.481 218.501,408.481 212.5,415.5C 204.444,422.555 197.11,430.221 190.5,438.5C 169.5,460.167 148.167,481.5 126.5,502.5C 124.973,502.427 123.973,503.094 123.5,504.5C 123.167,505.5 122.5,506.167 121.5,506.5C 120.221,505.285 119.221,505.618 118.5,507.5C 118.5,508.167 118.167,508.5 117.5,508.5C 115.316,507.892 113.316,508.559 111.5,510.5C 110.833,510.5 110.5,510.833 110.5,511.5C 104.5,511.5 98.5,511.5 92.5,511.5C 91.3285,510.655 89.9952,509.989 88.5,509.5C 87.779,507.618 86.779,507.285 85.5,508.5C 84.2905,508.068 83.2905,507.401 82.5,506.5C 80.1215,504.122 77.4549,502.122 74.5,500.5C 72.5,499.167 70.8333,497.5 69.5,495.5C 70.7152,494.221 70.3818,493.221 68.5,492.5C 66.3926,489.943 65.0592,486.943 64.5,483.5C 65.0431,483.44 65.3764,483.107 65.5,482.5C 65.0057,480.974 64.339,479.641 63.5,478.5C 63.1683,331.43 63.5017,184.43 64.5,37.5C 65.339,36.3588 66.0057,35.0255 66.5,33.5C 66.3764,32.8933 66.0431,32.56 65.5,32.5C 65.5,32.1667 65.5,31.8333 65.5,31.5C 67.5518,30.9473 67.8852,29.9473 66.5,28.5C 66.8333,27.8333 67.1667,27.1667 67.5,26.5C 69.0481,26.1788 69.7148,25.1788 69.5,23.5C 71.9,21.7036 73.5667,19.3702 74.5,16.5C 76.2633,12.9475 78.93,10.2809 82.5,8.5C 82.4346,8.93822 82.6012,9.27155 83,9.5C 85.0714,8.89713 86.2381,7.5638 86.5,5.5C 91.1563,3.2877 95.823,1.2877 100.5,-0.5 Z"/></g>
<g><path style="opacity:0.137" fill="#95cecd" d="M 405.5,-0.5 C 407.167,-0.5 408.833,-0.5 410.5,-0.5C 410.842,0.338246 411.508,0.67158 412.5,0.5C 412.265,1.09674 411.765,1.43007 411,1.5C 408.97,1.04626 407.137,0.379591 405.5,-0.5 Z"/></g>
<g><path style="opacity:0.953" fill="#7a9695" d="M 416.5,2.5 C 419.241,2.70732 421.574,3.70732 423.5,5.5C 420.759,5.29268 418.426,4.29268 416.5,2.5 Z"/></g>
<g><path style="opacity:0.259" fill="#bac5c4" d="M 86.5,5.5 C 86.2381,7.5638 85.0714,8.89713 83,9.5C 82.6012,9.27155 82.4346,8.93822 82.5,8.5C 83.795,7.51163 85.1283,6.51163 86.5,5.5 Z"/></g>
<g><path style="opacity:0.996" fill="#d69f99" d="M 424.5,5.5 C 426.909,6.70069 428.909,8.36735 430.5,10.5C 427.638,9.7529 425.638,8.08623 424.5,5.5 Z"/></g>
<g><path style="opacity:0.906" fill="#9ecccb" d="M 74.5,16.5 C 73.5667,19.3702 71.9,21.7036 69.5,23.5C 70.4333,20.6298 72.1,18.2964 74.5,16.5 Z"/></g>
<g><path style="opacity:0.384" fill="#b7dfde" d="M 437.5,17.5 C 438.906,17.9731 439.573,18.9731 439.5,20.5C 438.094,20.0269 437.427,19.0269 437.5,17.5 Z"/></g>
<g><path style="opacity:0.918" fill="#acc9c9" d="M 69.5,23.5 C 69.7148,25.1788 69.0481,26.1788 67.5,26.5C 67.9321,25.2905 68.5987,24.2905 69.5,23.5 Z"/></g>
<g><path style="opacity:0.98" fill="#7dadac" d="M 66.5,28.5 C 67.8852,29.9473 67.5518,30.9473 65.5,31.5C 66.1098,30.609 66.4431,29.609 66.5,28.5 Z"/></g>
<g><path style="opacity:0.141" fill="#aed0cf" d="M 445.5,32.5 C 446.301,34.0418 446.634,35.7085 446.5,37.5C 445.661,36.3588 444.994,35.0255 444.5,33.5C 444.624,32.8933 444.957,32.56 445.5,32.5 Z"/></g>
<g><path style="opacity:0.263" fill="#9f9d9d" d="M 65.5,32.5 C 66.0431,32.56 66.3764,32.8933 66.5,33.5C 66.0057,35.0255 65.339,36.3588 64.5,37.5C 64.366,35.7085 64.6993,34.0418 65.5,32.5 Z"/></g>
<g><path style="opacity:0.196" fill="#b39993" d="M 261.5,384.5 C 256.858,383.327 252.191,383.327 247.5,384.5C 251.531,382.561 255.864,382.061 260.5,383C 261.056,383.383 261.389,383.883 261.5,384.5 Z"/></g>
<g><path style="opacity:0.031" fill="#a8d7d6" d="M 247.5,384.5 C 246.486,385.674 245.153,386.34 243.5,386.5C 244.287,384.896 245.62,384.229 247.5,384.5 Z"/></g>
<g><path style="opacity:0.098" fill="#9f9a95" d="M 262.5,384.5 C 262.56,383.957 262.893,383.624 263.5,383.5C 265.167,384.333 266.833,385.167 268.5,386C 269.738,386.69 269.738,387.19 268.5,387.5C 266.5,386.5 264.5,385.5 262.5,384.5 Z"/></g>
<g><path style="opacity:0.282" fill="#52b4b4" d="M 241.5,387.5 C 241.167,388.5 240.5,389.167 239.5,389.5C 238.262,389.19 238.262,388.69 239.5,388C 240.094,387.536 240.761,387.369 241.5,387.5 Z"/></g>
<g><path style="opacity:0.224" fill="#2da8a7" d="M 298.5,415.5 C 298.167,415.5 297.833,415.5 297.5,415.5C 288.167,406.833 279.167,397.833 270.5,388.5C 280.166,396.487 289.5,405.487 298.5,415.5 Z"/></g>
<g><path style="opacity:0.243" fill="#673231" d="M 231.5,397.5 C 225.833,403.833 219.833,409.833 213.5,415.5C 213.167,415.5 212.833,415.5 212.5,415.5C 218.501,408.481 224.834,402.481 231.5,397.5 Z"/></g>
<g><path style="opacity:0.933" fill="#ed8b83" d="M 297.5,415.5 C 297.833,415.5 298.167,415.5 298.5,415.5C 311.176,427.167 322.843,439.167 333.5,451.5C 321.167,439.833 309.167,427.833 297.5,415.5 Z"/></g>
<g><path style="opacity:0.22" fill="#a2b5b3" d="M 212.5,415.5 C 212.833,415.5 213.167,415.5 213.5,415.5C 206.167,423.5 198.5,431.167 190.5,438.5C 197.11,430.221 204.444,422.555 212.5,415.5 Z"/></g>
<g><path style="opacity:0.008" fill="#a9d2d1" d="M 63.5,478.5 C 64.339,479.641 65.0057,480.974 65.5,482.5C 65.3764,483.107 65.0431,483.44 64.5,483.5C 63.6993,481.958 63.366,480.292 63.5,478.5 Z"/></g>
<g><path style="opacity:0.557" fill="#b7acaa" d="M 446.5,484.5 C 446.34,486.153 445.674,487.486 444.5,488.5C 444.229,486.62 444.896,485.287 446.5,484.5 Z"/></g>
<g><path style="opacity:0.322" fill="#98aaa0" d="M 444.5,488.5 C 444.539,491.089 443.539,493.089 441.5,494.5C 441.062,494.565 440.728,494.399 440.5,494C 441.977,492.188 443.31,490.355 444.5,488.5 Z"/></g>
<g><path style="opacity:0.192" fill="#5ea09f" d="M 68.5,492.5 C 70.3818,493.221 70.7152,494.221 69.5,495.5C 68.8902,494.609 68.5569,493.609 68.5,492.5 Z"/></g>
<g><path style="opacity:0.71" fill="#919e95" d="M 74.5,500.5 C 77.4549,502.122 80.1215,504.122 82.5,506.5C 78.9796,505.647 76.3129,503.647 74.5,500.5 Z"/></g>
<g><path style="opacity:0.016" fill="#aed7d6" d="M 126.5,502.5 C 126.027,503.906 125.027,504.573 123.5,504.5C 123.973,503.094 124.973,502.427 126.5,502.5 Z"/></g>
<g><path style="opacity:0.086" fill="#5bb5b5" d="M 434.5,502.5 C 434.027,503.906 433.027,504.573 431.5,504.5C 432.242,502.65 433.242,501.984 434.5,502.5 Z"/></g>
<g><path style="opacity:0.161" fill="#64bdbd" d="M 121.5,506.5 C 120.609,507.11 119.609,507.443 118.5,507.5C 119.221,505.618 120.221,505.285 121.5,506.5 Z"/></g>
<g><path style="opacity:0.992" fill="#e4d1d1" d="M 85.5,508.5 C 86.779,507.285 87.779,507.618 88.5,509.5C 87.391,509.443 86.391,509.11 85.5,508.5 Z"/></g>
<g><path style="opacity:0.502" fill="#b7998e" d="M 117.5,508.5 C 115.703,509.73 113.703,510.396 111.5,510.5C 113.316,508.559 115.316,507.892 117.5,508.5 Z"/></g>
<g><path style="opacity:0.51" fill="#91b0ae" d="M 393.5,508.5 C 393.56,507.957 393.893,507.624 394.5,507.5C 399.434,509.558 404.434,510.892 409.5,511.5C 406.5,511.5 403.5,511.5 400.5,511.5C 398.188,510.659 395.855,509.659 393.5,508.5 Z"/></g>
<g><path style="opacity:0.557" fill="#a99e99" d="M 421.5,509.5 C 420.5,510.167 419.5,510.833 418.5,511.5C 416.833,511.5 415.167,511.5 413.5,511.5C 415.905,510.232 418.572,509.565 421.5,509.5 Z"/></g>
</svg>
