<?xml version="1.0" encoding="UTF-8"?>
<!DOCTYPE svg PUBLIC "-//W3C//DTD SVG 1.1//EN" "http://www.w3.org/Graphics/SVG/1.1/DTD/svg11.dtd">
<svg xmlns="http://www.w3.org/2000/svg" version="1.1" width="512px" height="512px" style="shape-rendering:geometricPrecision; text-rendering:geometricPrecision; image-rendering:optimizeQuality; fill-rule:evenodd; clip-rule:evenodd" xmlns:xlink="http://www.w3.org/1999/xlink">
<g><path style="opacity:0.943" fill="#000000" d="M 221.5,71.5 C 284.959,69.8087 334.126,95.142 369,147.5C 395.671,193.924 399.671,242.258 381,292.5C 373.977,308.725 364.81,323.558 353.5,337C 381,364.5 408.5,392 436,419.5C 440.81,425.503 440.643,431.336 435.5,437C 429.948,440.409 424.615,440.076 419.5,436C 392,408.5 364.5,381 337,353.5C 289.062,392.451 235.562,402.284 176.5,383C 126.966,363.435 94.1323,328.268 78,277.5C 61.5435,211.214 78.3768,155.047 128.5,109C 155.697,86.9916 186.697,74.4916 221.5,71.5 Z M 229.5,93.5 C 290.636,95.7937 334.136,124.46 360,179.5C 379.183,232.74 370.85,281.073 335,324.5C 290.785,368.947 238.951,380.78 179.5,360C 125.716,334.672 97.0491,292.172 93.5,232.5C 96.3451,174.277 123.678,132.111 175.5,106C 192.877,98.5618 210.877,94.3951 229.5,93.5 Z"/></g>
</svg>
