<?xml version="1.0" encoding="UTF-8"?>
<!DOCTYPE svg PUBLIC "-//W3C//DTD SVG 1.1//EN" "http://www.w3.org/Graphics/SVG/1.1/DTD/svg11.dtd">
<svg xmlns="http://www.w3.org/2000/svg" version="1.1" width="512px" height="512px" style="shape-rendering:geometricPrecision; text-rendering:geometricPrecision; image-rendering:optimizeQuality; fill-rule:evenodd; clip-rule:evenodd" xmlns:xlink="http://www.w3.org/1999/xlink">
<g><path style="opacity:0.96" fill="#000000" d="M 511.5,202.5 C 511.5,209.833 511.5,217.167 511.5,224.5C 508.941,236.616 503.441,247.282 495,256.5C 453.444,298.724 411.277,340.224 368.5,381C 356.987,387.847 345.32,388.181 333.5,382C 326.32,375.808 322.153,367.975 321,358.5C 320.667,342.167 320.333,325.833 320,309.5C 197.165,317.322 98.665,369.822 24.5,467C 14.0301,472.672 5.6968,470.505 -0.5,460.5C -0.5,449.833 -0.5,439.167 -0.5,428.5C 12.6056,308.401 71.2722,218.235 175.5,158C 220.802,133.758 269.135,120.591 320.5,118.5C 320.333,102.163 320.5,85.8299 321,69.5C 325.052,46.1016 338.552,37.2682 361.5,43C 366.098,45.2701 370.431,47.9368 374.5,51C 415.667,92.1667 456.833,133.333 498,174.5C 504.418,182.999 508.918,192.332 511.5,202.5 Z M 351.5,73.5 C 392.437,112.937 432.937,152.937 473,193.5C 482.171,205.73 482.838,218.396 475,231.5C 434,272.5 393,313.5 352,354.5C 351.667,333.167 351.333,311.833 351,290.5C 347.233,280.694 340.067,276.694 329.5,278.5C 213.41,282.149 114.91,325.149 34,407.5C 51.3634,310.896 102.197,237.729 186.5,188C 234.74,161.689 286.407,148.356 341.5,148C 346.876,145.96 350.043,142.127 351,136.5C 351.5,115.503 351.667,94.5026 351.5,73.5 Z"/></g>
</svg>
