<svg class="VotingBox__svg" height="16" viewBox="0 0 16 16" width="16" xmlns="http://www.w3.org/2000/svg" style="fill: #3b82f6;"><path clip-rule="evenodd" d="M4.80002 0.199951C4.46865 0.199951 4.20002 0.46858 4.20002 0.799951V6.30395H0.800023C0.563721 6.30395 0.349425 6.44265 0.252649 6.65822C0.155872 6.8738 0.194641 7.1261 0.351675 7.30268L7.55168 15.3987C7.66553 15.5267 7.82869 15.6 8.00002 15.6C8.17135 15.6 8.33451 15.5267 8.44837 15.3987L15.6484 7.30268C15.8054 7.1261 15.8442 6.8738 15.7474 6.65822C15.6506 6.44265 15.4363 6.30395 15.2 6.30395H11.8V0.799951C11.8 0.46858 11.5314 0.199951 11.2 0.199951H4.80002Z" fill-rule="evenodd"></path></svg>